<?xml version="1.0" encoding="UTF-8"?>
<svg version="1.1" xmlns="http://www.w3.org/2000/svg" width="512" height="512">
<path d="M0 0 C2.22546153 2.07837988 3.77955212 4.11561696 5.30859375 6.7421875 C7.85900127 10.91385072 10.8085967 14.48851655 14.0625 18.125 C15.22046947 19.43973667 16.37801209 20.75484939 17.53515625 22.0703125 C18.11539551 22.72676758 18.69563477 23.38322266 19.29345703 24.05957031 C21.89208999 27.01435354 24.44614481 30.00652934 27 33 C31.14785769 37.84978177 35.3167021 42.68076132 39.5 47.5 C44.1809556 52.89254979 48.83835664 58.30446436 53.48046875 63.73046875 C57.1371438 68.00138843 60.81435479 72.25406669 64.5 76.5 C69.1809556 81.89254979 73.83835664 87.30446436 78.48046875 92.73046875 C82.1371438 97.00138843 85.81435479 101.25406669 89.5 105.5 C94.1809556 110.89254979 98.83835664 116.30446436 103.48046875 121.73046875 C107.1371438 126.00138843 110.81435479 130.25406669 114.5 134.5 C119.1809556 139.89254979 123.83835664 145.30446436 128.48046875 150.73046875 C132.1371438 155.00138843 135.81435479 159.25406669 139.5 163.5 C144.1809556 168.89254979 148.83835664 174.30446436 153.48046875 179.73046875 C157.1371438 184.00138843 160.81435479 188.25406669 164.5 192.5 C168.68330468 197.31924649 172.85118126 202.15103385 177 207 C181.32388792 212.04982771 185.65494492 217.09336737 190 222.125 C190.54011719 222.75277344 191.08023438 223.38054687 191.63671875 224.02734375 C194.32388897 227.1341728 197.04309558 230.14260678 200 233 C205.56814284 226.51639848 211.06520641 219.99721557 216.3125 213.25 C220.9940565 207.23314838 225.80706322 201.33522851 230.66503906 195.46020508 C234.65306809 190.6370806 238.61940266 185.79743015 242.5625 180.9375 C243.09472168 180.28152832 243.62694336 179.62555664 244.17529297 178.94970703 C245.24738147 177.62788727 246.3193219 176.30594741 247.39111328 174.98388672 C249.55006868 172.32172108 251.71156314 169.6616235 253.87329102 167.00170898 C254.95603093 165.66936852 256.03855119 164.33684952 257.12084961 163.00415039 C259.85051659 159.64313746 262.58287451 156.28437516 265.3203125 152.9296875 C270.48017636 146.60113653 275.60650853 140.2539311 280.625 133.8125 C284.65982038 128.63627425 288.83021471 123.59741809 293.09082031 118.60595703 C296.40457959 114.72016568 299.61960376 110.77016858 302.79296875 106.76953125 C305.56873411 103.28631419 308.37700787 99.83021803 311.1875 96.375 C311.74147461 95.69348877 312.29544922 95.01197754 312.86621094 94.30981445 C315.68780462 90.83954595 318.51219949 87.37158998 321.33984375 83.90625 C326.49292805 77.58530627 331.61276413 71.2459018 336.625 64.8125 C340.65982038 59.63627425 344.83021471 54.59741809 349.09082031 49.60595703 C352.39986173 45.72569795 355.61177665 41.78274098 358.77734375 37.78515625 C360.52663951 35.59315647 362.28996754 33.41597554 364.06640625 31.24609375 C376.61475179 16.37121086 376.61475179 16.37121086 387 0 C387.33 0.66 387.66 1.32 388 2 C387.13212408 4.3927672 386.19614792 6.66832228 385.16015625 8.98828125 C384.84721619 9.70585602 384.53427612 10.42343079 384.21185303 11.16275024 C383.16922202 13.54920333 382.11577488 15.93072782 381.0625 18.3125 C380.33015063 19.9840962 379.59863572 21.65605821 378.86791992 23.32836914 C377.34421422 26.81376429 375.81688425 30.2975381 374.28710938 33.78027344 C371.09797658 41.04860005 367.95467691 48.33664472 364.81066895 55.62457275 C363.14687722 59.47986121 361.47965444 63.33366478 359.8125 67.1875 C359.48977112 67.93363556 359.16704224 68.67977112 358.83453369 69.44851685 C354.08759679 80.42240649 349.33230364 91.39267422 344.57666016 102.36279297 C342.15574633 107.94761399 339.73564169 113.53278558 337.31552124 119.11795044 C335.96038504 122.24531656 334.6051896 125.37265702 333.25 128.5 C332.70833305 129.74999988 332.16666638 130.99999988 331.625 132.25 C308.875 184.75 286.125 237.25 263.375 289.75 C263.10685989 290.36878525 262.83871979 290.9875705 262.56245422 291.62510681 C262.02094129 292.87475127 261.47942721 294.12439523 260.93791199 295.3740387 C259.58138388 298.50447445 258.22487579 301.63491888 256.8684082 304.76538086 C254.19786611 310.9284125 251.52700979 317.09130754 248.85546875 323.25390625 C242.89697978 336.99972733 236.94521918 350.74843419 231 364.5 C226.10845789 375.81436221 221.21420547 387.12753685 216.3125 398.4375 C215.79582764 399.62980225 215.27915527 400.82210449 214.74682617 402.05053711 C212.26406713 407.77911391 209.78015476 413.5071856 207.29402161 419.23429871 C206.08988142 422.00842545 204.88626712 424.78278022 203.68270874 427.55715942 C203.10926457 428.87862496 202.53556071 430.19997784 201.96157837 431.52120972 C201.1677572 433.34849785 200.37487462 435.17619364 199.58203125 437.00390625 C199.13061768 438.04361572 198.6792041 439.0833252 198.21411133 440.15454102 C197.10418462 442.75582711 196.03806295 445.36933392 195 448 C194.34 448 193.68 448 193 448 C192.50822266 446.86087158 192.01644531 445.72174316 191.50976562 444.5480957 C181.32566558 420.95868531 171.13697114 397.37127502 160.93635559 373.78900146 C158.59239303 368.37000772 156.24917157 362.95069389 153.90625 357.53125 C147.77608792 343.35188611 141.64401639 329.17336701 135.5 315 C130.72361556 303.98156429 125.95363375 292.96037364 121.1875 281.9375 C120.84985626 281.15665039 120.51221252 280.37580078 120.16433716 279.57128906 C116.8307237 271.86174476 113.49758719 264.1519948 110.16610718 256.44152832 C100.39773862 233.83391894 90.59851238 211.23976913 80.79206848 188.64865112 C80.06935005 186.98372116 80.06935005 186.98372116 79.33203125 185.28515625 C78.85815475 184.19349152 78.38427826 183.10182678 77.89604187 181.9770813 C74.42748581 173.98610845 70.96220267 165.9937275 67.5 158 C61.50700077 144.1636285 55.50328221 130.33191242 49.5 116.5 C38.03991119 90.09528683 38.03991119 90.09528683 34.4375 81.78125 C33.93903564 80.63084229 33.44057129 79.48043457 32.92700195 78.29516602 C31.98225879 76.11360938 31.03807753 73.93180931 30.09448242 71.74975586 C26.99140402 64.57843433 23.87246677 57.41419938 20.74478149 50.25357056 C18.89712587 46.02196373 17.05195942 41.78927516 15.20775795 37.55616188 C13.88585144 34.52247196 12.5617969 31.48974701 11.23486328 28.45825195 C9.74238867 25.04812924 8.25542542 21.63565039 6.76953125 18.22265625 C6.31806229 17.19479507 5.86659332 16.1669339 5.40144348 15.10792542 C3.23688176 10.12167176 1.32313401 5.2755079 0 0 Z " fill="#cbc361" transform="translate(66,33)"/>
<path d="M0 0 C3.30450325 2.7351334 4.84699672 6.38367137 6.6640625 10.16796875 C7.37579742 11.62068698 8.0883879 13.07298629 8.80175781 14.52490234 C9.16563599 15.26867126 9.52951416 16.01244019 9.90441895 16.77874756 C11.6134366 20.24372134 13.37814733 23.67930746 15.1484375 27.11328125 C15.49205826 27.78085449 15.83567902 28.44842773 16.18971252 29.13623047 C17.25042807 31.19552863 18.31259024 33.25407545 19.375 35.3125 C19.74539398 36.0308905 20.11578796 36.74928101 20.49740601 37.48944092 C25.4943835 47.18058946 30.52452413 56.85297627 35.62109375 66.4921875 C38.39210252 71.73450996 41.13376784 76.9920615 43.875 82.25 C44.37668701 83.21212402 44.87837402 84.17424805 45.39526367 85.16552734 C47.44428748 89.09579946 49.49263451 93.02642414 51.54101562 96.95703125 C57.07817846 107.58106669 62.62425596 118.20001957 68.21142578 128.79785156 C72.00864922 136.00516614 75.77407368 143.22893326 79.5390625 150.453125 C82.679273 156.47588771 85.832327 162.4916396 89 168.5 C93.20305504 176.47224633 97.37387512 184.46103957 101.5390625 192.453125 C104.679273 198.47588771 107.832327 204.4916396 111 210.5 C115.20305504 218.47224633 119.37387512 226.46103957 123.5390625 234.453125 C126.679273 240.47588771 129.832327 246.4916396 133 252.5 C137.20305504 260.47224633 141.37387512 268.46103957 145.5390625 276.453125 C148.679273 282.47588771 151.832327 288.4916396 155 294.5 C158.68536608 301.49030728 162.34781507 308.49230136 166 315.5 C169.67385949 322.54890784 173.35753662 329.59238944 177.0625 336.625 C177.45743652 337.37579834 177.85237305 338.12659668 178.25927734 338.90014648 C180.52008206 343.19695739 182.78978479 347.4888903 185.06640625 351.77734375 C186.0860148 353.7056883 187.10554761 355.63407289 188.125 357.5625 C188.61105713 358.47402832 189.09711426 359.38555664 189.59790039 360.32470703 C190.04254639 361.16759277 190.48719238 362.01047852 190.9453125 362.87890625 C191.34250488 363.6272876 191.73969727 364.37566895 192.14892578 365.14672852 C193 367 193 367 193 369 C193.66 369 194.32 369 195 369 C195.25201172 368.16621826 195.50402344 367.33243652 195.76367188 366.47338867 C197.13737162 362.61406278 198.89169111 359.04897348 200.78125 355.42578125 C201.3356929 354.35033302 201.3356929 354.35033302 201.90133667 353.25315857 C203.09665993 350.93738979 204.29817527 348.62490035 205.5 346.3125 C206.3279369 344.71206932 207.15557252 343.11148274 207.98291016 341.51074219 C212.83199738 332.13751583 217.71132606 322.78031423 222.6484375 313.453125 C225.45567338 308.14761816 228.22668737 302.82329464 231 297.5 C235.05206339 289.72466189 239.12191362 281.95907996 243.2109375 274.203125 C246.49086318 267.97753359 249.74786086 261.74014515 253 255.5 C257.05219179 247.72472845 261.1219133 239.95908057 265.2109375 232.203125 C268.49086318 225.97753359 271.74786086 219.74014515 275 213.5 C279.05219179 205.72472845 283.1219133 197.95908057 287.2109375 190.203125 C290.49086318 183.97753359 293.74786086 177.74014515 297 171.5 C301.05219179 163.72472845 305.1219133 155.95908057 309.2109375 148.203125 C312.49086318 141.97753359 315.74786086 135.74014515 319 129.5 C322.65216579 122.49229101 326.31469714 115.49034069 330 108.5 C335.70091183 97.68452967 341.34982341 86.8420372 347 76 C358.45405611 54.02098739 358.45405611 54.02098739 364.125 43.25 C364.52412598 42.49154785 364.92325195 41.7330957 365.33447266 40.95166016 C367.4739718 36.88860646 369.62038526 32.82932644 371.7734375 28.7734375 C372.22960449 27.91202148 372.68577148 27.05060547 373.15576172 26.16308594 C374.02768448 24.51678935 374.90158935 22.87154043 375.77783203 21.22753906 C377.73186811 17.53417854 379.45198293 13.88327359 381 10 C382.00860007 8.21012681 383.05085511 6.43882319 384.125 4.6875 C384.93324219 3.36298828 384.93324219 3.36298828 385.7578125 2.01171875 C386.37269531 1.01591797 386.37269531 1.01591797 387 0 C387.33 0.66 387.66 1.32 388 2 C387.13212408 4.3927672 386.19614792 6.66832228 385.16015625 8.98828125 C384.84721619 9.70585602 384.53427612 10.42343079 384.21185303 11.16275024 C383.16922202 13.54920333 382.11577488 15.93072782 381.0625 18.3125 C380.33015063 19.9840962 379.59863572 21.65605821 378.86791992 23.32836914 C377.34421422 26.81376429 375.81688425 30.2975381 374.28710938 33.78027344 C371.09797658 41.04860005 367.95467691 48.33664472 364.81066895 55.62457275 C363.14687722 59.47986121 361.47965444 63.33366478 359.8125 67.1875 C359.48977112 67.93363556 359.16704224 68.67977112 358.83453369 69.44851685 C354.08759679 80.42240649 349.33230364 91.39267422 344.57666016 102.36279297 C342.15574633 107.94761399 339.73564169 113.53278558 337.31552124 119.11795044 C335.96038504 122.24531656 334.6051896 125.37265702 333.25 128.5 C332.70833305 129.74999988 332.16666638 130.99999988 331.625 132.25 C308.875 184.75 286.125 237.25 263.375 289.75 C263.10685989 290.36878525 262.83871979 290.9875705 262.56245422 291.62510681 C262.02094129 292.87475127 261.47942721 294.12439523 260.93791199 295.3740387 C259.58138388 298.50447445 258.22487579 301.63491888 256.8684082 304.76538086 C254.19786611 310.9284125 251.52700979 317.09130754 248.85546875 323.25390625 C242.89697978 336.99972733 236.94521918 350.74843419 231 364.5 C226.10845789 375.81436221 221.21420547 387.12753685 216.3125 398.4375 C215.79582764 399.62980225 215.27915527 400.82210449 214.74682617 402.05053711 C212.26406713 407.77911391 209.78015476 413.5071856 207.29402161 419.23429871 C206.08988142 422.00842545 204.88626712 424.78278022 203.68270874 427.55715942 C203.10926457 428.87862496 202.53556071 430.19997784 201.96157837 431.52120972 C201.1677572 433.34849785 200.37487462 435.17619364 199.58203125 437.00390625 C199.13061768 438.04361572 198.6792041 439.0833252 198.21411133 440.15454102 C197.10418462 442.75582711 196.03806295 445.36933392 195 448 C194.34 448 193.68 448 193 448 C192.50822266 446.86087158 192.01644531 445.72174316 191.50976562 444.5480957 C181.32566558 420.95868531 171.13697114 397.37127502 160.93635559 373.78900146 C158.59239303 368.37000772 156.24917157 362.95069389 153.90625 357.53125 C147.77608792 343.35188611 141.64401639 329.17336701 135.5 315 C130.72361556 303.98156429 125.95363375 292.96037364 121.1875 281.9375 C120.84985626 281.15665039 120.51221252 280.37580078 120.16433716 279.57128906 C116.8307237 271.86174476 113.49758719 264.1519948 110.16610718 256.44152832 C100.39773862 233.83391894 90.59851238 211.23976913 80.79206848 188.64865112 C80.06935005 186.98372116 80.06935005 186.98372116 79.33203125 185.28515625 C78.85815475 184.19349152 78.38427826 183.10182678 77.89604187 181.9770813 C74.42748581 173.98610845 70.96220267 165.9937275 67.5 158 C61.50700077 144.1636285 55.50328221 130.33191242 49.5 116.5 C38.03991119 90.09528683 38.03991119 90.09528683 34.4375 81.78125 C33.93903564 80.63084229 33.44057129 79.48043457 32.92700195 78.29516602 C31.98225879 76.11360938 31.03807753 73.93180931 30.09448242 71.74975586 C26.99140402 64.57843433 23.87246677 57.41419938 20.74478149 50.25357056 C18.89712587 46.02196373 17.05195942 41.78927516 15.20775795 37.55616188 C13.88585144 34.52247196 12.5617969 31.48974701 11.23486328 28.45825195 C9.74238867 25.04812924 8.25542542 21.63565039 6.76953125 18.22265625 C6.31806229 17.19479507 5.86659332 16.1669339 5.40144348 15.10792542 C3.23688176 10.12167176 1.32313401 5.2755079 0 0 Z " fill="#cbc361" transform="translate(66,33)"/>
</svg>
